<?xml version="1.0" standalone="no"?><!DOCTYPE svg PUBLIC "-//W3C//DTD SVG 1.1//EN" "http://www.w3.org/Graphics/SVG/1.1/DTD/svg11.dtd"><svg t="1736479837705" class="icon" viewBox="0 0 1024 1024" version="1.1" xmlns="http://www.w3.org/2000/svg" p-id="5241" xmlns:xlink="http://www.w3.org/1999/xlink" width="200" height="200"><path d="M768 469.333333v128h-128v85.333334h341.333333l-213.333333-213.333334zM981.333333 768h-341.333333l213.333333 213.333333v-128h128v-85.333333z" fill="#67C23A" p-id="5242"></path><path d="M213.12 128A85.12 85.12 0 0 0 128 213.12v597.76A85.12 85.12 0 0 0 213.12 896H554.666667v-85.333333H213.333333V213.333333h597.333334v170.666667h85.333333V213.12A85.12 85.12 0 0 0 810.88 128H213.12zM554.666667 557.098667a298.410667 298.410667 0 0 0-289.237334 134.186666 425.813333 425.813333 0 0 0 74.709334 41.728A213.162667 213.162667 0 0 1 554.666667 643.413333v-86.314666z m-99.84-13.781334a149.333333 149.333333 0 1 0 114.346666-275.925333 149.333333 149.333333 0 0 0-114.346666 275.925333z m102.4-92.714666a64 64 0 1 1-90.453334-90.538667 64 64 0 0 1 90.453334 90.538667z" fill="#4381FF" p-id="5243"></path></svg>